# MagicaVoxel @ Ephtracy

# group
o 

# material
mtllib Coin.mtl
usemtl palette

# normals
vn -1 0 0
vn 1 0 0
vn 0 0 1
vn 0 0 -1
vn 0 -1 0
vn 0 1 0

# texcoords
vt 0.00585938 0.5
vt 0.00976562 0.5
vt 0.0136719 0.5
vt 0.0175781 0.5

# verts
v -0.5 0.3 0.1
v -0.5 0.3 -1.49012e-08
v -0.5 0.7 0.1
v -0.5 0.7 -1.49012e-08
v -0.4 0.2 0.1
v -0.4 0.2 -1.49012e-08
v -0.4 0.3 0.1
v -0.4 0.3 -1.49012e-08
v -0.4 0.7 0.1
v -0.4 0.7 -1.49012e-08
v -0.4 0.8 0.1
v -0.4 0.8 -1.49012e-08
v -0.3 0.1 0.1
v -0.3 0.1 -1.49012e-08
v -0.3 0.2 0.1
v -0.3 0.2 -1.49012e-08
v -0.3 0.8 0.1
v -0.3 0.8 -1.49012e-08
v -0.3 0.9 0.1
v -0.3 0.9 -1.49012e-08
v -0.2 0 0.1
v -0.2 0 -1.49012e-08
v -0.2 0.1 0.1
v -0.2 0.1 -1.49012e-08
v -0.2 0.9 0.1
v -0.2 0.9 -1.49012e-08
v -0.2 1 0.1
v -0.2 1 -1.49012e-08
v 0.2 0 0.1
v 0.2 0 -1.49012e-08
v 0.2 0.1 0.1
v 0.2 0.1 -1.49012e-08
v 0.2 0.9 0.1
v 0.2 0.9 -1.49012e-08
v 0.2 1 0.1
v 0.2 1 -1.49012e-08
v 0.3 0.1 0.1
v 0.3 0.1 -1.49012e-08
v 0.3 0.2 0.1
v 0.3 0.2 -1.49012e-08
v 0.3 0.8 0.1
v 0.3 0.8 -1.49012e-08
v 0.3 0.9 0.1
v 0.3 0.9 -1.49012e-08
v 0.4 0.2 0.1
v 0.4 0.2 -1.49012e-08
v 0.4 0.3 0.1
v 0.4 0.3 -1.49012e-08
v 0.4 0.7 0.1
v 0.4 0.7 -1.49012e-08
v 0.4 0.8 0.1
v 0.4 0.8 -1.49012e-08
v 0.5 0.3 0.1
v 0.5 0.3 -1.49012e-08
v 0.5 0.7 0.1
v 0.5 0.7 -1.49012e-08
v -0.5 0.3 0.1
v -0.5 0.7 0.1
v -0.4 0.2 0.1
v -0.4 0.3 0.1
v -0.4 0.7 0.1
v -0.4 0.8 0.1
v -0.3 0.1 0.1
v -0.3 0.2 0.1
v -0.3 0.3 0.1
v -0.3 0.7 0.1
v -0.3 0.8 0.1
v -0.3 0.9 0.1
v -0.2 0 0.1
v -0.2 0.1 0.1
v -0.2 0.2 0.1
v -0.2 0.3 0.1
v -0.2 0.7 0.1
v -0.2 0.8 0.1
v -0.2 0.9 0.1
v -0.2 1 0.1
v -0.1 0.2 0.1
v -0.1 0.3 0.1
v -0.1 0.7 0.1
v -0.1 0.8 0.1
v 0 0 0.1
v 0 0.1 0.1
v 0 0.4 0.1
v 0 0.5 0.1
v 0.1 0.2 0.1
v 0.1 0.3 0.1
v 0.1 0.4 0.1
v 0.1 0.7 0.1
v 0.1 0.8 0.1
v 0.2 0 0.1
v 0.2 0.1 0.1
v 0.2 0.2 0.1
v 0.2 0.3 0.1
v 0.2 0.4 0.1
v 0.2 0.8 0.1
v 0.2 0.9 0.1
v 0.2 1 0.1
v 0.3 0.1 0.1
v 0.3 0.2 0.1
v 0.3 0.3 0.1
v 0.3 0.4 0.1
v 0.3 0.5 0.1
v 0.3 0.7 0.1
v 0.3 0.8 0.1
v 0.3 0.9 0.1
v 0.4 0.2 0.1
v 0.4 0.3 0.1
v 0.4 0.7 0.1
v 0.4 0.8 0.1
v 0.5 0.3 0.1
v 0.5 0.7 0.1
v -0.5 0.3 -1.49012e-08
v -0.5 0.7 -1.49012e-08
v -0.4 0.2 -1.49012e-08
v -0.4 0.3 -1.49012e-08
v -0.4 0.7 -1.49012e-08
v -0.4 0.8 -1.49012e-08
v -0.3 0.1 -1.49012e-08
v -0.3 0.2 -1.49012e-08
v -0.3 0.3 -1.49012e-08
v -0.3 0.7 -1.49012e-08
v -0.3 0.8 -1.49012e-08
v -0.3 0.9 -1.49012e-08
v -0.2 0 -1.49012e-08
v -0.2 0.1 -1.49012e-08
v -0.2 0.2 -1.49012e-08
v -0.2 0.3 -1.49012e-08
v -0.2 0.7 -1.49012e-08
v -0.2 0.8 -1.49012e-08
v -0.2 0.9 -1.49012e-08
v -0.2 1 -1.49012e-08
v -0.1 0.2 -1.49012e-08
v -0.1 0.3 -1.49012e-08
v -0.1 0.7 -1.49012e-08
v -0.1 0.8 -1.49012e-08
v 0 0 -1.49012e-08
v 0 0.1 -1.49012e-08
v 0 0.4 -1.49012e-08
v 0 0.5 -1.49012e-08
v 0.1 0.2 -1.49012e-08
v 0.1 0.3 -1.49012e-08
v 0.1 0.4 -1.49012e-08
v 0.1 0.7 -1.49012e-08
v 0.1 0.8 -1.49012e-08
v 0.2 0 -1.49012e-08
v 0.2 0.1 -1.49012e-08
v 0.2 0.2 -1.49012e-08
v 0.2 0.3 -1.49012e-08
v 0.2 0.4 -1.49012e-08
v 0.2 0.8 -1.49012e-08
v 0.2 0.9 -1.49012e-08
v 0.2 1 -1.49012e-08
v 0.3 0.1 -1.49012e-08
v 0.3 0.2 -1.49012e-08
v 0.3 0.3 -1.49012e-08
v 0.3 0.4 -1.49012e-08
v 0.3 0.5 -1.49012e-08
v 0.3 0.7 -1.49012e-08
v 0.3 0.8 -1.49012e-08
v 0.3 0.9 -1.49012e-08
v 0.4 0.2 -1.49012e-08
v 0.4 0.3 -1.49012e-08
v 0.4 0.7 -1.49012e-08
v 0.4 0.8 -1.49012e-08
v 0.5 0.3 -1.49012e-08
v 0.5 0.7 -1.49012e-08
v -0.2 0 0.1
v 0 0 0.1
v 0.2 0 0.1
v -0.2 0 -1.49012e-08
v 0 0 -1.49012e-08
v 0.2 0 -1.49012e-08
v -0.3 0.1 0.1
v -0.2 0.1 0.1
v 0.2 0.1 0.1
v 0.3 0.1 0.1
v -0.3 0.1 -1.49012e-08
v -0.2 0.1 -1.49012e-08
v 0.2 0.1 -1.49012e-08
v 0.3 0.1 -1.49012e-08
v -0.4 0.2 0.1
v -0.3 0.2 0.1
v 0.3 0.2 0.1
v 0.4 0.2 0.1
v -0.4 0.2 -1.49012e-08
v -0.3 0.2 -1.49012e-08
v 0.3 0.2 -1.49012e-08
v 0.4 0.2 -1.49012e-08
v -0.5 0.3 0.1
v -0.4 0.3 0.1
v 0.4 0.3 0.1
v 0.5 0.3 0.1
v -0.5 0.3 -1.49012e-08
v -0.4 0.3 -1.49012e-08
v 0.4 0.3 -1.49012e-08
v 0.5 0.3 -1.49012e-08
v -0.5 0.7 0.1
v -0.4 0.7 0.1
v 0.4 0.7 0.1
v 0.5 0.7 0.1
v -0.5 0.7 -1.49012e-08
v -0.4 0.7 -1.49012e-08
v 0.4 0.7 -1.49012e-08
v 0.5 0.7 -1.49012e-08
v -0.4 0.8 0.1
v -0.3 0.8 0.1
v 0.3 0.8 0.1
v 0.4 0.8 0.1
v -0.4 0.8 -1.49012e-08
v -0.3 0.8 -1.49012e-08
v 0.3 0.8 -1.49012e-08
v 0.4 0.8 -1.49012e-08
v -0.3 0.9 0.1
v -0.2 0.9 0.1
v 0.2 0.9 0.1
v 0.3 0.9 0.1
v -0.3 0.9 -1.49012e-08
v -0.2 0.9 -1.49012e-08
v 0.2 0.9 -1.49012e-08
v 0.3 0.9 -1.49012e-08
v -0.2 1 0.1
v 0.2 1 0.1
v -0.2 1 -1.49012e-08
v 0.2 1 -1.49012e-08

# faces
f 3/3/1 2/3/1 1/3/1
f 4/3/1 2/3/1 3/3/1
f 7/3/1 6/3/1 5/3/1
f 8/3/1 6/3/1 7/3/1
f 11/3/1 10/3/1 9/3/1
f 12/3/1 10/3/1 11/3/1
f 15/3/1 14/3/1 13/3/1
f 16/3/1 14/3/1 15/3/1
f 19/3/1 18/3/1 17/3/1
f 20/3/1 18/3/1 19/3/1
f 23/3/1 22/3/1 21/3/1
f 24/3/1 22/3/1 23/3/1
f 27/3/1 26/3/1 25/3/1
f 28/3/1 26/3/1 27/3/1
f 29/2/2 30/2/2 31/2/2
f 31/2/2 30/2/2 32/2/2
f 33/3/2 34/3/2 35/3/2
f 35/3/2 34/3/2 36/3/2
f 37/2/2 38/2/2 39/2/2
f 39/2/2 38/2/2 40/2/2
f 41/3/2 42/3/2 43/3/2
f 43/3/2 42/3/2 44/3/2
f 45/2/2 46/2/2 47/2/2
f 47/2/2 46/2/2 48/2/2
f 49/3/2 50/3/2 51/3/2
f 51/3/2 50/3/2 52/3/2
f 53/2/2 54/2/2 55/2/2
f 55/2/2 54/2/2 56/2/2
f 60/3/3 58/3/3 57/3/3
f 61/3/3 58/3/3 60/3/3
f 64/3/3 60/3/3 59/3/3
f 65/4/3 61/4/3 60/4/3
f 65/3/3 60/3/3 64/3/3
f 66/3/3 62/3/3 61/3/3
f 66/4/3 61/4/3 65/4/3
f 67/3/3 62/3/3 66/3/3
f 70/3/3 64/3/3 63/3/3
f 71/4/3 65/4/3 64/4/3
f 71/4/3 66/4/3 65/4/3
f 71/3/3 64/3/3 70/3/3
f 71/4/3 67/4/3 66/4/3
f 72/4/3 67/4/3 71/4/3
f 73/4/3 67/4/3 72/4/3
f 74/3/3 68/3/3 67/3/3
f 74/4/3 67/4/3 73/4/3
f 75/3/3 68/3/3 74/3/3
f 77/4/3 71/4/3 70/4/3
f 77/4/3 72/4/3 71/4/3
f 78/1/3 73/1/3 72/1/3
f 78/4/3 72/4/3 77/4/3
f 79/4/3 75/4/3 74/4/3
f 79/1/3 73/1/3 78/1/3
f 79/4/3 74/4/3 73/4/3
f 80/4/3 75/4/3 79/4/3
f 81/3/3 70/3/3 69/3/3
f 82/4/3 77/4/3 70/4/3
f 82/3/3 70/3/3 81/3/3
f 83/4/3 79/4/3 78/4/3
f 84/4/3 79/4/3 83/4/3
f 85/1/3 78/1/3 77/1/3
f 85/4/3 77/4/3 82/4/3
f 86/4/3 83/4/3 78/4/3
f 86/1/3 78/1/3 85/1/3
f 87/1/3 84/1/3 83/1/3
f 87/4/3 83/4/3 86/4/3
f 88/4/3 79/4/3 84/4/3
f 88/1/3 80/1/3 79/1/3
f 89/4/3 75/4/3 80/4/3
f 89/1/3 80/1/3 88/1/3
f 90/2/3 82/2/3 81/2/3
f 91/4/3 86/4/3 85/4/3
f 91/2/3 82/2/3 90/2/3
f 91/4/3 85/4/3 82/4/3
f 92/4/3 86/4/3 91/4/3
f 93/1/3 87/1/3 86/1/3
f 93/4/3 86/4/3 92/4/3
f 94/1/3 84/1/3 87/1/3
f 94/1/3 87/1/3 93/1/3
f 95/4/3 75/4/3 89/4/3
f 95/4/3 89/4/3 88/4/3
f 96/3/3 76/3/3 75/3/3
f 96/4/3 75/4/3 95/4/3
f 97/3/3 76/3/3 96/3/3
f 98/2/3 92/2/3 91/2/3
f 99/4/3 93/4/3 92/4/3
f 99/2/3 92/2/3 98/2/3
f 99/4/3 94/4/3 93/4/3
f 100/4/3 94/4/3 99/4/3
f 101/1/3 84/1/3 94/1/3
f 101/4/3 94/4/3 100/4/3
f 102/4/3 88/4/3 84/4/3
f 102/1/3 84/1/3 101/1/3
f 102/4/3 95/4/3 88/4/3
f 103/4/3 95/4/3 102/4/3
f 104/3/3 96/3/3 95/3/3
f 104/4/3 95/4/3 103/4/3
f 105/3/3 96/3/3 104/3/3
f 106/2/3 100/2/3 99/2/3
f 107/4/3 101/4/3 100/4/3
f 107/2/3 100/2/3 106/2/3
f 107/4/3 103/4/3 102/4/3
f 107/4/3 102/4/3 101/4/3
f 108/3/3 104/3/3 103/3/3
f 108/4/3 103/4/3 107/4/3
f 109/3/3 104/3/3 108/3/3
f 110/2/3 108/2/3 107/2/3
f 111/2/3 108/2/3 110/2/3
f 112/3/4 113/3/4 115/3/4
f 115/3/4 113/3/4 116/3/4
f 114/3/4 115/3/4 119/3/4
f 115/4/4 116/4/4 120/4/4
f 119/3/4 115/3/4 120/3/4
f 116/3/4 117/3/4 121/3/4
f 120/4/4 116/4/4 121/4/4
f 121/3/4 117/3/4 122/3/4
f 118/3/4 119/3/4 125/3/4
f 119/4/4 120/4/4 126/4/4
f 120/4/4 121/4/4 126/4/4
f 125/3/4 119/3/4 126/3/4
f 121/4/4 122/4/4 126/4/4
f 126/4/4 122/4/4 127/4/4
f 127/4/4 122/4/4 128/4/4
f 122/3/4 123/3/4 129/3/4
f 128/4/4 122/4/4 129/4/4
f 129/3/4 123/3/4 130/3/4
f 125/4/4 126/4/4 132/4/4
f 126/4/4 127/4/4 132/4/4
f 127/1/4 128/1/4 133/1/4
f 132/4/4 127/4/4 133/4/4
f 129/4/4 130/4/4 134/4/4
f 133/1/4 128/1/4 134/1/4
f 128/4/4 129/4/4 134/4/4
f 134/4/4 130/4/4 135/4/4
f 124/3/4 125/3/4 136/3/4
f 125/4/4 132/4/4 137/4/4
f 136/3/4 125/3/4 137/3/4
f 133/4/4 134/4/4 138/4/4
f 138/4/4 134/4/4 139/4/4
f 132/1/4 133/1/4 140/1/4
f 137/4/4 132/4/4 140/4/4
f 133/4/4 138/4/4 141/4/4
f 140/1/4 133/1/4 141/1/4
f 138/1/4 139/1/4 142/1/4
f 141/4/4 138/4/4 142/4/4
f 139/4/4 134/4/4 143/4/4
f 134/1/4 135/1/4 143/1/4
f 135/4/4 130/4/4 144/4/4
f 143/1/4 135/1/4 144/1/4
f 136/2/4 137/2/4 145/2/4
f 140/4/4 141/4/4 146/4/4
f 145/2/4 137/2/4 146/2/4
f 137/4/4 140/4/4 146/4/4
f 146/4/4 141/4/4 147/4/4
f 141/1/4 142/1/4 148/1/4
f 147/4/4 141/4/4 148/4/4
f 142/1/4 139/1/4 149/1/4
f 148/1/4 142/1/4 149/1/4
f 144/4/4 130/4/4 150/4/4
f 143/4/4 144/4/4 150/4/4
f 130/3/4 131/3/4 151/3/4
f 150/4/4 130/4/4 151/4/4
f 151/3/4 131/3/4 152/3/4
f 146/2/4 147/2/4 153/2/4
f 147/4/4 148/4/4 154/4/4
f 153/2/4 147/2/4 154/2/4
f 148/4/4 149/4/4 154/4/4
f 154/4/4 149/4/4 155/4/4
f 149/1/4 139/1/4 156/1/4
f 155/4/4 149/4/4 156/4/4
f 139/4/4 143/4/4 157/4/4
f 156/1/4 139/1/4 157/1/4
f 143/4/4 150/4/4 157/4/4
f 157/4/4 150/4/4 158/4/4
f 150/3/4 151/3/4 159/3/4
f 158/4/4 150/4/4 159/4/4
f 159/3/4 151/3/4 160/3/4
f 154/2/4 155/2/4 161/2/4
f 155/4/4 156/4/4 162/4/4
f 161/2/4 155/2/4 162/2/4
f 157/4/4 158/4/4 162/4/4
f 156/4/4 157/4/4 162/4/4
f 158/3/4 159/3/4 163/3/4
f 162/4/4 158/4/4 163/4/4
f 163/3/4 159/3/4 164/3/4
f 162/2/4 163/2/4 165/2/4
f 165/2/4 163/2/4 166/2/4
f 170/3/5 168/3/5 167/3/5
f 171/2/5 169/2/5 168/2/5
f 171/3/5 168/3/5 170/3/5
f 172/2/5 169/2/5 171/2/5
f 177/3/5 174/3/5 173/3/5
f 178/3/5 174/3/5 177/3/5
f 179/2/5 176/2/5 175/2/5
f 180/2/5 176/2/5 179/2/5
f 185/3/5 182/3/5 181/3/5
f 186/3/5 182/3/5 185/3/5
f 187/2/5 184/2/5 183/2/5
f 188/2/5 184/2/5 187/2/5
f 193/3/5 190/3/5 189/3/5
f 194/3/5 190/3/5 193/3/5
f 195/2/5 192/2/5 191/2/5
f 196/2/5 192/2/5 195/2/5
f 197/3/6 198/3/6 201/3/6
f 201/3/6 198/3/6 202/3/6
f 199/2/6 200/2/6 203/2/6
f 203/2/6 200/2/6 204/2/6
f 205/3/6 206/3/6 209/3/6
f 209/3/6 206/3/6 210/3/6
f 207/3/6 208/3/6 211/3/6
f 211/3/6 208/3/6 212/3/6
f 213/3/6 214/3/6 217/3/6
f 217/3/6 214/3/6 218/3/6
f 215/3/6 216/3/6 219/3/6
f 219/3/6 216/3/6 220/3/6
f 221/3/6 222/3/6 223/3/6
f 223/3/6 222/3/6 224/3/6
