# MagicaVoxel @ Ephtracy

# group
o 

# material
mtllib Missile.mtl
usemtl palette

# normals
vn -1 0 0
vn 1 0 0
vn 0 0 1
vn 0 0 -1
vn 0 -1 0
vn 0 1 0

# texcoords
vt 0.138672 0.5
vt 0.982422 0.5

# verts
v -0.4 0.4 0.2
v -0.4 0.4 -0.1
v -0.4 0.4 -0.2
v -0.4 0.6 0.2
v -0.4 0.6 -0.1
v -0.4 0.6 -0.2
v -0.3 0.4 0.3
v -0.3 0.4 0.2
v -0.3 0.6 0.3
v -0.3 0.6 0.2
v -0.2 0.3 0.2
v -0.2 0.3 -0.1
v -0.2 0.4 0.2
v -0.2 0.4 0.1
v -0.2 0.4 -0.1
v -0.2 0.4 -0.2
v -0.2 0.6 0.2
v -0.2 0.6 0.1
v -0.2 0.6 -0.1
v -0.2 0.6 -0.2
v -0.2 0.7 0.2
v -0.2 0.7 -0.1
v -0.1 0.1 0.2
v -0.1 0.1 -0.1
v -0.1 0.1 -0.2
v -0.1 0.2 0.3
v -0.1 0.2 0.2
v -0.1 0.2 0.1
v -0.1 0.2 -0.1
v -0.1 0.2 -0.2
v -0.1 0.3 0.2
v -0.1 0.3 0.1
v -0.1 0.3 -0.1
v -0.1 0.3 -0.2
v -0.1 0.4 0.5
v -0.1 0.4 0.4
v -0.1 0.4 0.3
v -0.1 0.4 0.2
v -0.1 0.4 -0.1
v -0.1 0.4 -0.2
v -0.1 0.4 -0.4
v -0.1 0.4 -0.5
v -0.1 0.6 0.5
v -0.1 0.6 0.4
v -0.1 0.6 0.3
v -0.1 0.6 0.2
v -0.1 0.6 -0.1
v -0.1 0.6 -0.2
v -0.1 0.6 -0.4
v -0.1 0.6 -0.5
v -0.1 0.7 0.2
v -0.1 0.7 0.1
v -0.1 0.7 -0.1
v -0.1 0.7 -0.2
v -0.1 0.8 0.3
v -0.1 0.8 0.2
v -0.1 0.8 0.1
v -0.1 0.8 -0.1
v -0.1 0.8 -0.2
v -0.1 0.9 0.2
v -0.1 0.9 -0.1
v -0.1 0.9 -0.2
v 0.3 0.4 0.1
v 0.3 0.4 -0.1
v 0.3 0.4 -0.2
v 0.3 0.6 0.1
v 0.3 0.6 -0.1
v 0.3 0.6 -0.2
v -0.3 0.4 0.1
v -0.3 0.4 -0.1
v -0.3 0.4 -0.2
v -0.3 0.6 0.1
v -0.3 0.6 -0.1
v -0.3 0.6 -0.2
v 0.1 0.1 0.2
v 0.1 0.1 -0.1
v 0.1 0.1 -0.2
v 0.1 0.2 0.3
v 0.1 0.2 0.2
v 0.1 0.2 0.1
v 0.1 0.2 -0.1
v 0.1 0.2 -0.2
v 0.1 0.3 0.2
v 0.1 0.3 0.1
v 0.1 0.3 -0.1
v 0.1 0.3 -0.2
v 0.1 0.4 0.5
v 0.1 0.4 0.4
v 0.1 0.4 0.3
v 0.1 0.4 0.2
v 0.1 0.4 -0.1
v 0.1 0.4 -0.2
v 0.1 0.4 -0.4
v 0.1 0.4 -0.5
v 0.1 0.6 0.5
v 0.1 0.6 0.4
v 0.1 0.6 0.3
v 0.1 0.6 0.2
v 0.1 0.6 -0.1
v 0.1 0.6 -0.2
v 0.1 0.6 -0.4
v 0.1 0.6 -0.5
v 0.1 0.7 0.2
v 0.1 0.7 0.1
v 0.1 0.7 -0.1
v 0.1 0.7 -0.2
v 0.1 0.8 0.3
v 0.1 0.8 0.2
v 0.1 0.8 0.1
v 0.1 0.8 -0.1
v 0.1 0.8 -0.2
v 0.1 0.9 0.2
v 0.1 0.9 -0.1
v 0.1 0.9 -0.2
v 0.2 0.3 0.2
v 0.2 0.3 -0.1
v 0.2 0.4 0.2
v 0.2 0.4 0.1
v 0.2 0.4 -0.1
v 0.2 0.4 -0.2
v 0.2 0.6 0.2
v 0.2 0.6 0.1
v 0.2 0.6 -0.1
v 0.2 0.6 -0.2
v 0.2 0.7 0.2
v 0.2 0.7 -0.1
v 0.3 0.4 0.3
v 0.3 0.4 0.2
v 0.3 0.6 0.3
v 0.3 0.6 0.2
v 0.4 0.4 0.2
v 0.4 0.4 -0.1
v 0.4 0.4 -0.2
v 0.4 0.6 0.2
v 0.4 0.6 -0.1
v 0.4 0.6 -0.2
v -0.1 0.4 0.5
v -0.1 0.6 0.5
v 0.1 0.4 0.5
v 0.1 0.6 0.5
v -0.3 0.4 0.3
v -0.3 0.6 0.3
v -0.1 0.2 0.3
v -0.1 0.4 0.3
v -0.1 0.6 0.3
v -0.1 0.8 0.3
v 0.1 0.2 0.3
v 0.1 0.4 0.3
v 0.1 0.6 0.3
v 0.1 0.8 0.3
v 0.3 0.4 0.3
v 0.3 0.6 0.3
v -0.4 0.4 0.2
v -0.4 0.6 0.2
v -0.3 0.4 0.2
v -0.3 0.6 0.2
v -0.2 0.3 0.2
v -0.2 0.4 0.2
v -0.2 0.6 0.2
v -0.2 0.7 0.2
v -0.1 0.1 0.2
v -0.1 0.2 0.2
v -0.1 0.3 0.2
v -0.1 0.4 0.2
v -0.1 0.6 0.2
v -0.1 0.7 0.2
v -0.1 0.8 0.2
v -0.1 0.9 0.2
v 0.1 0.1 0.2
v 0.1 0.2 0.2
v 0.1 0.3 0.2
v 0.1 0.4 0.2
v 0.1 0.6 0.2
v 0.1 0.7 0.2
v 0.1 0.8 0.2
v 0.1 0.9 0.2
v 0.2 0.3 0.2
v 0.2 0.4 0.2
v 0.2 0.6 0.2
v 0.2 0.7 0.2
v 0.3 0.4 0.2
v 0.3 0.6 0.2
v 0.4 0.4 0.2
v 0.4 0.6 0.2
v -0.3 0.4 0.1
v -0.3 0.6 0.1
v -0.2 0.4 0.1
v -0.2 0.6 0.1
v -0.1 0.2 0.1
v -0.1 0.3 0.1
v -0.1 0.7 0.1
v -0.1 0.8 0.1
v 0.1 0.2 0.1
v 0.1 0.3 0.1
v 0.1 0.7 0.1
v 0.1 0.8 0.1
v 0.2 0.4 0.1
v 0.2 0.6 0.1
v 0.3 0.4 0.1
v 0.3 0.6 0.1
v -0.2 0.3 -0.1
v -0.2 0.4 -0.1
v -0.2 0.6 -0.1
v -0.2 0.7 -0.1
v -0.1 0.3 -0.1
v -0.1 0.4 -0.1
v -0.1 0.6 -0.1
v -0.1 0.7 -0.1
v 0.1 0.3 -0.1
v 0.1 0.4 -0.1
v 0.1 0.6 -0.1
v 0.1 0.7 -0.1
v 0.2 0.3 -0.1
v 0.2 0.4 -0.1
v 0.2 0.6 -0.1
v 0.2 0.7 -0.1
v -0.4 0.4 -0.2
v -0.4 0.6 -0.2
v -0.3 0.4 -0.2
v -0.3 0.6 -0.2
v -0.2 0.4 -0.2
v -0.2 0.6 -0.2
v -0.1 0.1 -0.2
v -0.1 0.2 -0.2
v -0.1 0.3 -0.2
v -0.1 0.4 -0.2
v -0.1 0.6 -0.2
v -0.1 0.7 -0.2
v -0.1 0.8 -0.2
v -0.1 0.9 -0.2
v 0.1 0.1 -0.2
v 0.1 0.2 -0.2
v 0.1 0.3 -0.2
v 0.1 0.4 -0.2
v 0.1 0.6 -0.2
v 0.1 0.7 -0.2
v 0.1 0.8 -0.2
v 0.1 0.9 -0.2
v 0.2 0.4 -0.2
v 0.2 0.6 -0.2
v 0.3 0.4 -0.2
v 0.3 0.6 -0.2
v 0.4 0.4 -0.2
v 0.4 0.6 -0.2
v -0.1 0.4 -0.5
v -0.1 0.6 -0.5
v 0.1 0.4 -0.5
v 0.1 0.6 -0.5
v -0.1 0.1 0.2
v 0.1 0.1 0.2
v -0.1 0.1 -0.1
v 0.1 0.1 -0.1
v -0.1 0.1 -0.2
v 0.1 0.1 -0.2
v -0.1 0.2 0.3
v 0.1 0.2 0.3
v -0.1 0.2 0.2
v 0.1 0.2 0.2
v -0.2 0.3 0.2
v -0.1 0.3 0.2
v 0.1 0.3 0.2
v 0.2 0.3 0.2
v -0.1 0.3 0.1
v 0.1 0.3 0.1
v -0.2 0.3 -0.1
v -0.1 0.3 -0.1
v 0.1 0.3 -0.1
v 0.2 0.3 -0.1
v -0.1 0.3 -0.2
v 0.1 0.3 -0.2
v -0.1 0.4 0.5
v 0.1 0.4 0.5
v -0.1 0.4 0.4
v 0.1 0.4 0.4
v -0.3 0.4 0.3
v -0.1 0.4 0.3
v 0.1 0.4 0.3
v 0.3 0.4 0.3
v -0.4 0.4 0.2
v -0.3 0.4 0.2
v -0.2 0.4 0.2
v -0.1 0.4 0.2
v 0.1 0.4 0.2
v 0.2 0.4 0.2
v 0.3 0.4 0.2
v 0.4 0.4 0.2
v -0.3 0.4 0.1
v -0.2 0.4 0.1
v 0.2 0.4 0.1
v 0.3 0.4 0.1
v -0.4 0.4 -0.1
v -0.3 0.4 -0.1
v -0.2 0.4 -0.1
v -0.1 0.4 -0.1
v 0.1 0.4 -0.1
v 0.2 0.4 -0.1
v 0.3 0.4 -0.1
v 0.4 0.4 -0.1
v -0.4 0.4 -0.2
v -0.3 0.4 -0.2
v -0.2 0.4 -0.2
v -0.1 0.4 -0.2
v 0.1 0.4 -0.2
v 0.2 0.4 -0.2
v 0.3 0.4 -0.2
v 0.4 0.4 -0.2
v -0.1 0.4 -0.4
v 0.1 0.4 -0.4
v -0.1 0.4 -0.5
v 0.1 0.4 -0.5
v -0.1 0.8 0.1
v 0.1 0.8 0.1
v -0.1 0.8 -0.1
v 0.1 0.8 -0.1
v -0.1 0.8 -0.2
v 0.1 0.8 -0.2
v -0.1 0.2 0.1
v 0.1 0.2 0.1
v -0.1 0.2 -0.1
v 0.1 0.2 -0.1
v -0.1 0.2 -0.2
v 0.1 0.2 -0.2
v -0.1 0.6 0.5
v 0.1 0.6 0.5
v -0.1 0.6 0.4
v 0.1 0.6 0.4
v -0.3 0.6 0.3
v -0.1 0.6 0.3
v 0.1 0.6 0.3
v 0.3 0.6 0.3
v -0.4 0.6 0.2
v -0.3 0.6 0.2
v -0.2 0.6 0.2
v -0.1 0.6 0.2
v 0.1 0.6 0.2
v 0.2 0.6 0.2
v 0.3 0.6 0.2
v 0.4 0.6 0.2
v -0.3 0.6 0.1
v -0.2 0.6 0.1
v 0.2 0.6 0.1
v 0.3 0.6 0.1
v -0.4 0.6 -0.1
v -0.3 0.6 -0.1
v -0.2 0.6 -0.1
v -0.1 0.6 -0.1
v 0.1 0.6 -0.1
v 0.2 0.6 -0.1
v 0.3 0.6 -0.1
v 0.4 0.6 -0.1
v -0.4 0.6 -0.2
v -0.3 0.6 -0.2
v -0.2 0.6 -0.2
v -0.1 0.6 -0.2
v 0.1 0.6 -0.2
v 0.2 0.6 -0.2
v 0.3 0.6 -0.2
v 0.4 0.6 -0.2
v -0.1 0.6 -0.4
v 0.1 0.6 -0.4
v -0.1 0.6 -0.5
v 0.1 0.6 -0.5
v -0.2 0.7 0.2
v -0.1 0.7 0.2
v 0.1 0.7 0.2
v 0.2 0.7 0.2
v -0.1 0.7 0.1
v 0.1 0.7 0.1
v -0.2 0.7 -0.1
v -0.1 0.7 -0.1
v 0.1 0.7 -0.1
v 0.2 0.7 -0.1
v -0.1 0.7 -0.2
v 0.1 0.7 -0.2
v -0.1 0.8 0.3
v 0.1 0.8 0.3
v -0.1 0.8 0.2
v 0.1 0.8 0.2
v -0.1 0.9 0.2
v 0.1 0.9 0.2
v -0.1 0.9 -0.1
v 0.1 0.9 -0.1
v -0.1 0.9 -0.2
v 0.1 0.9 -0.2

# faces
f 4/2/1 2/2/1 1/2/1
f 5/1/1 3/1/1 2/1/1
f 5/2/1 2/2/1 4/2/1
f 6/1/1 3/1/1 5/1/1
f 9/2/1 8/2/1 7/2/1
f 10/2/1 8/2/1 9/2/1
f 13/2/1 12/2/1 11/2/1
f 14/2/1 12/2/1 13/2/1
f 15/2/1 12/2/1 14/2/1
f 18/2/1 16/2/1 15/2/1
f 18/2/1 15/2/1 14/2/1
f 19/2/1 16/2/1 18/2/1
f 20/2/1 16/2/1 19/2/1
f 21/2/1 18/2/1 17/2/1
f 21/2/1 19/2/1 18/2/1
f 22/2/1 19/2/1 21/2/1
f 27/2/1 24/2/1 23/2/1
f 28/2/1 24/2/1 27/2/1
f 29/1/1 25/1/1 24/1/1
f 29/2/1 24/2/1 28/2/1
f 30/1/1 25/1/1 29/1/1
f 31/2/1 28/2/1 27/2/1
f 31/2/1 27/2/1 26/2/1
f 32/2/1 28/2/1 31/2/1
f 37/2/1 31/2/1 26/2/1
f 38/2/1 31/2/1 37/2/1
f 39/2/1 34/2/1 33/2/1
f 40/2/1 34/2/1 39/2/1
f 43/1/1 36/1/1 35/1/1
f 44/2/1 37/2/1 36/2/1
f 44/1/1 36/1/1 43/1/1
f 45/2/1 37/2/1 44/2/1
f 48/2/1 41/2/1 40/2/1
f 49/1/1 42/1/1 41/1/1
f 49/2/1 41/2/1 48/2/1
f 50/1/1 42/1/1 49/1/1
f 51/2/1 46/2/1 45/2/1
f 53/2/1 48/2/1 47/2/1
f 54/2/1 48/2/1 53/2/1
f 55/2/1 52/2/1 51/2/1
f 55/2/1 51/2/1 45/2/1
f 56/2/1 52/2/1 55/2/1
f 57/2/1 52/2/1 56/2/1
f 60/2/1 57/2/1 56/2/1
f 60/2/1 58/2/1 57/2/1
f 61/1/1 59/1/1 58/1/1
f 61/2/1 58/2/1 60/2/1
f 62/1/1 59/1/1 61/1/1
f 66/2/1 64/2/1 63/2/1
f 67/1/1 65/1/1 64/1/1
f 67/2/1 64/2/1 66/2/1
f 68/1/1 65/1/1 67/1/1
f 69/2/2 70/2/2 72/2/2
f 70/1/2 71/1/2 73/1/2
f 72/2/2 70/2/2 73/2/2
f 73/1/2 71/1/2 74/1/2
f 75/2/2 76/2/2 79/2/2
f 79/2/2 76/2/2 80/2/2
f 76/1/2 77/1/2 81/1/2
f 80/2/2 76/2/2 81/2/2
f 81/1/2 77/1/2 82/1/2
f 79/2/2 80/2/2 83/2/2
f 78/2/2 79/2/2 83/2/2
f 83/2/2 80/2/2 84/2/2
f 78/2/2 83/2/2 89/2/2
f 89/2/2 83/2/2 90/2/2
f 85/2/2 86/2/2 91/2/2
f 91/2/2 86/2/2 92/2/2
f 87/1/2 88/1/2 95/1/2
f 88/2/2 89/2/2 96/2/2
f 95/1/2 88/1/2 96/1/2
f 96/2/2 89/2/2 97/2/2
f 92/2/2 93/2/2 100/2/2
f 93/1/2 94/1/2 101/1/2
f 100/2/2 93/2/2 101/2/2
f 101/1/2 94/1/2 102/1/2
f 97/2/2 98/2/2 103/2/2
f 99/2/2 100/2/2 105/2/2
f 105/2/2 100/2/2 106/2/2
f 103/2/2 104/2/2 107/2/2
f 97/2/2 103/2/2 107/2/2
f 107/2/2 104/2/2 108/2/2
f 108/2/2 104/2/2 109/2/2
f 108/2/2 109/2/2 112/2/2
f 109/2/2 110/2/2 112/2/2
f 110/1/2 111/1/2 113/1/2
f 112/2/2 110/2/2 113/2/2
f 113/1/2 111/1/2 114/1/2
f 115/2/2 116/2/2 117/2/2
f 117/2/2 116/2/2 118/2/2
f 118/2/2 116/2/2 119/2/2
f 119/2/2 120/2/2 122/2/2
f 118/2/2 119/2/2 122/2/2
f 122/2/2 120/2/2 123/2/2
f 123/2/2 120/2/2 124/2/2
f 121/2/2 122/2/2 125/2/2
f 122/2/2 123/2/2 125/2/2
f 125/2/2 123/2/2 126/2/2
f 127/2/2 128/2/2 129/2/2
f 129/2/2 128/2/2 130/2/2
f 131/2/2 132/2/2 134/2/2
f 132/1/2 133/1/2 135/1/2
f 134/2/2 132/2/2 135/2/2
f 135/1/2 133/1/2 136/1/2
f 139/1/3 138/1/3 137/1/3
f 140/1/3 138/1/3 139/1/3
f 144/2/3 142/2/3 141/2/3
f 145/2/3 142/2/3 144/2/3
f 147/2/3 144/2/3 143/2/3
f 148/2/3 144/2/3 147/2/3
f 149/2/3 146/2/3 145/2/3
f 150/2/3 146/2/3 149/2/3
f 151/2/3 149/2/3 148/2/3
f 152/2/3 149/2/3 151/2/3
f 155/2/3 154/2/3 153/2/3
f 156/2/3 154/2/3 155/2/3
f 163/2/3 158/2/3 157/2/3
f 164/2/3 158/2/3 163/2/3
f 165/2/3 160/2/3 159/2/3
f 166/2/3 160/2/3 165/2/3
f 169/2/3 162/2/3 161/2/3
f 170/2/3 162/2/3 169/2/3
f 175/2/3 168/2/3 167/2/3
f 176/2/3 168/2/3 175/2/3
f 177/2/3 172/2/3 171/2/3
f 178/2/3 172/2/3 177/2/3
f 179/2/3 174/2/3 173/2/3
f 180/2/3 174/2/3 179/2/3
f 183/2/3 182/2/3 181/2/3
f 184/2/3 182/2/3 183/2/3
f 185/2/4 186/2/4 187/2/4
f 187/2/4 186/2/4 188/2/4
f 189/2/4 190/2/4 193/2/4
f 193/2/4 190/2/4 194/2/4
f 191/2/4 192/2/4 195/2/4
f 195/2/4 192/2/4 196/2/4
f 197/2/4 198/2/4 199/2/4
f 199/2/4 198/2/4 200/2/4
f 201/2/4 202/2/4 205/2/4
f 205/2/4 202/2/4 206/2/4
f 203/2/4 204/2/4 207/2/4
f 207/2/4 204/2/4 208/2/4
f 209/2/4 210/2/4 213/2/4
f 213/2/4 210/2/4 214/2/4
f 211/2/4 212/2/4 215/2/4
f 215/2/4 212/2/4 216/2/4
f 217/1/4 218/1/4 219/1/4
f 219/1/4 218/1/4 220/1/4
f 221/2/4 222/2/4 226/2/4
f 226/2/4 222/2/4 227/2/4
f 223/1/4 224/1/4 231/1/4
f 231/1/4 224/1/4 232/1/4
f 225/2/4 226/2/4 233/2/4
f 233/2/4 226/2/4 234/2/4
f 227/2/4 228/2/4 235/2/4
f 235/2/4 228/2/4 236/2/4
f 229/1/4 230/1/4 237/1/4
f 237/1/4 230/1/4 238/1/4
f 234/2/4 235/2/4 239/2/4
f 239/2/4 235/2/4 240/2/4
f 241/1/4 242/1/4 243/1/4
f 243/1/4 242/1/4 244/1/4
f 245/1/4 246/1/4 247/1/4
f 247/1/4 246/1/4 248/1/4
f 251/2/5 250/2/5 249/2/5
f 252/2/5 250/2/5 251/2/5
f 253/1/5 252/1/5 251/1/5
f 254/1/5 252/1/5 253/1/5
f 257/2/5 256/2/5 255/2/5
f 258/2/5 256/2/5 257/2/5
f 263/2/5 260/2/5 259/2/5
f 264/2/5 262/2/5 261/2/5
f 265/2/5 263/2/5 259/2/5
f 265/2/5 264/2/5 263/2/5
f 266/2/5 264/2/5 265/2/5
f 267/2/5 262/2/5 264/2/5
f 267/2/5 264/2/5 266/2/5
f 268/2/5 262/2/5 267/2/5
f 269/2/5 267/2/5 266/2/5
f 270/2/5 267/2/5 269/2/5
f 273/1/5 272/1/5 271/1/5
f 274/1/5 272/1/5 273/1/5
f 276/2/5 274/2/5 273/2/5
f 277/2/5 274/2/5 276/2/5
f 280/2/5 276/2/5 275/2/5
f 281/2/5 276/2/5 280/2/5
f 282/2/5 276/2/5 281/2/5
f 283/2/5 278/2/5 277/2/5
f 284/2/5 278/2/5 283/2/5
f 285/2/5 278/2/5 284/2/5
f 287/2/5 280/2/5 279/2/5
f 287/2/5 281/2/5 280/2/5
f 288/2/5 281/2/5 287/2/5
f 289/2/5 286/2/5 285/2/5
f 289/2/5 285/2/5 284/2/5
f 290/2/5 286/2/5 289/2/5
f 291/2/5 287/2/5 279/2/5
f 292/2/5 287/2/5 291/2/5
f 297/2/5 286/2/5 290/2/5
f 298/2/5 286/2/5 297/2/5
f 299/1/5 292/1/5 291/1/5
f 300/1/5 292/1/5 299/1/5
f 301/2/5 294/2/5 293/2/5
f 302/2/5 294/2/5 301/2/5
f 303/2/5 296/2/5 295/2/5
f 304/2/5 296/2/5 303/2/5
f 305/1/5 298/1/5 297/1/5
f 306/1/5 298/1/5 305/1/5
f 307/2/5 303/2/5 302/2/5
f 308/2/5 303/2/5 307/2/5
f 309/1/5 308/1/5 307/1/5
f 310/1/5 308/1/5 309/1/5
f 313/2/5 312/2/5 311/2/5
f 314/2/5 312/2/5 313/2/5
f 315/1/5 314/1/5 313/1/5
f 316/1/5 314/1/5 315/1/5
f 317/2/6 318/2/6 319/2/6
f 319/2/6 318/2/6 320/2/6
f 319/1/6 320/1/6 321/1/6
f 321/1/6 320/1/6 322/1/6
f 323/1/6 324/1/6 325/1/6
f 325/1/6 324/1/6 326/1/6
f 325/2/6 326/2/6 328/2/6
f 328/2/6 326/2/6 329/2/6
f 327/2/6 328/2/6 332/2/6
f 332/2/6 328/2/6 333/2/6
f 333/2/6 328/2/6 334/2/6
f 329/2/6 330/2/6 335/2/6
f 335/2/6 330/2/6 336/2/6
f 336/2/6 330/2/6 337/2/6
f 331/2/6 332/2/6 339/2/6
f 332/2/6 333/2/6 339/2/6
f 339/2/6 333/2/6 340/2/6
f 337/2/6 338/2/6 341/2/6
f 336/2/6 337/2/6 341/2/6
f 341/2/6 338/2/6 342/2/6
f 331/2/6 339/2/6 343/2/6
f 343/2/6 339/2/6 344/2/6
f 342/2/6 338/2/6 349/2/6
f 349/2/6 338/2/6 350/2/6
f 343/1/6 344/1/6 351/1/6
f 351/1/6 344/1/6 352/1/6
f 345/2/6 346/2/6 353/2/6
f 353/2/6 346/2/6 354/2/6
f 347/2/6 348/2/6 355/2/6
f 355/2/6 348/2/6 356/2/6
f 349/1/6 350/1/6 357/1/6
f 357/1/6 350/1/6 358/1/6
f 354/2/6 355/2/6 359/2/6
f 359/2/6 355/2/6 360/2/6
f 359/1/6 360/1/6 361/1/6
f 361/1/6 360/1/6 362/1/6
f 363/2/6 364/2/6 367/2/6
f 365/2/6 366/2/6 368/2/6
f 363/2/6 367/2/6 369/2/6
f 367/2/6 368/2/6 369/2/6
f 369/2/6 368/2/6 370/2/6
f 368/2/6 366/2/6 371/2/6
f 370/2/6 368/2/6 371/2/6
f 371/2/6 366/2/6 372/2/6
f 370/2/6 371/2/6 373/2/6
f 373/2/6 371/2/6 374/2/6
f 375/2/6 376/2/6 377/2/6
f 377/2/6 376/2/6 378/2/6
f 379/2/6 380/2/6 381/2/6
f 381/2/6 380/2/6 382/2/6
f 381/1/6 382/1/6 383/1/6
f 383/1/6 382/1/6 384/1/6
